<svg id="Capa_1" enable-background="new 0 0 512 512" height="512" viewBox="0 0 512 512" width="512" xmlns="http://www.w3.org/2000/svg"><g><g><path d="m480.637 64.864c-89.737-52.16-206.676-39.811-283.534 37.047l-2.689 2.689c-76.858 76.858-89.207 193.796-37.047 283.534 15.802 27.186 53.042 32.077 75.277 9.842l257.835-257.835c22.234-22.235 17.343-59.475-9.842-75.277z" fill="#ffca8a"/><path d="m407.476 93.129c-.078-.131-.155-.262-.231-.394l-.008-.023c-11.162-19.235-33.825-28.617-55.317-22.902-7.372 1.964-14.983 2.165-22.27.716-7.28-1.44-14.236-4.529-20.306-9.151l-.054-.054c-17.656-13.465-42.129-13.457-59.784.008l-.062.046c-12.125 9.244-27.839 12.356-42.576 8.435-17.286-4.591-35.327.57-47.536 12.78-2.974 2.974-5.6 6.355-7.78 10.122l-.008.023c-7.642 13.172-20.945 22.07-36.043 24.103l-.116.023c-21.993 2.966-39.286 20.259-42.252 42.252l-.023.116c-2.034 15.098-10.931 28.402-24.111 36.051h-.015c-19.235 11.162-28.617 33.825-22.902 55.317 1.964 7.372 2.165 14.983.716 22.27-1.44 7.279-4.537 14.243-9.151 20.306l-.046.062c-13.465 17.656-13.473 42.129-.008 59.784l.046.062c9.252 12.117 12.364 27.832 8.443 42.568-4.591 17.286.57 35.327 12.78 47.536 2.973 2.973 6.355 5.6 10.122 7.78l.023.008c.132.076.263.153.394.231 21.889 12.97 49.705 9.816 67.696-8.175l282.202-282.202c17.993-17.993 21.147-45.809 8.177-67.698z" fill="#60d9a7"/><path d="m212.697 88.701c6.638-6.638 13.406-12.999 20.27-19.11-8.419 2.38-17.425 2.527-26.097.22-17.286-4.591-35.327.57-47.536 12.78-2.974 2.973-5.6 6.355-7.78 10.122l-.008.023c-7.642 13.172-20.945 22.07-36.043 24.103l-.116.023c-21.993 2.966-39.286 20.259-42.252 42.252l-.023.115c-2.034 15.098-10.931 28.402-24.111 36.051h-.015c-19.235 11.162-28.617 33.825-22.902 55.317 1.964 7.372 2.165 14.983.716 22.27-1.44 7.279-4.537 14.243-9.151 20.306l-.046.062c-13.465 17.656-13.473 42.129-.008 59.784l.046.062c9.252 12.117 12.364 27.832 8.443 42.568-4.591 17.286.57 35.327 12.78 47.536 2.973 2.973 6.355 5.6 10.122 7.78l.023.008c.132.076.263.153.394.231 21.889 12.97 49.705 9.816 67.696-8.175l6.423-6.423c-61.838-83.374-24.869-233.861 89.175-347.905z" fill="#00cd8c"/><path d="m413.866 131.635c-89.737-52.16-206.676-39.811-283.534 37.047l-2.689 2.689c-76.858 76.858-89.207 193.796-37.047 283.534 15.802 27.186 53.042 32.077 75.277 9.842l257.835-257.835c22.235-22.235 17.343-59.476-9.842-75.277z" fill="#ffdebb"/><g><g><g><ellipse cx="152.871" cy="358.297" fill="#ff8997" rx="42.189" ry="33.597" transform="matrix(.707 -.707 .707 .707 -208.58 213.04)"/></g><g><ellipse cx="314.569" cy="196.598" fill="#ff8997" rx="42.189" ry="33.597" transform="matrix(.707 -.707 .707 .707 -46.881 280.015)"/></g></g></g><path d="m136.462 451.628c-69.253-69.253-51.807-202.263 34.824-315.669-14.537 9.16-28.292 20.06-40.954 32.722l-2.689 2.689c-76.858 76.858-89.207 193.796-37.047 283.534 14.379 24.737 46.505 31.007 68.928 15.185-8.286-5.273-16.01-11.409-23.062-18.461z" fill="#ffca8a"/></g><g><path d="m140.468 300.532c-2.929-2.929-7.678-2.929-10.607 0s-2.929 7.678 0 10.607l12.195 12.195c2.93 2.929 7.678 2.929 10.607 0s2.929-7.678 0-10.607z"/><path d="m267.401 173.599c-2.929-2.93-7.678-2.929-10.607 0s-2.929 7.678 0 10.607l12.196 12.196c2.928 2.928 7.677 2.93 10.607 0 2.929-2.929 2.929-7.678 0-10.607z"/><path d="m226.682 229.987c-4.133.284-7.253 3.864-6.969 7.996.995 14.487-10.999 26.456-25.468 25.468-4.133-.29-7.713 2.836-7.997 6.969s2.836 7.713 6.969 7.997c23.512 1.618 43.081-17.878 41.462-41.461-.284-4.133-3.86-7.245-7.997-6.969z"/><path d="m484.393 58.357c-23.713-13.783-49.498-23.355-76.638-28.45-4.07-.763-7.991 1.917-8.756 5.988-.764 4.071 1.917 7.991 5.988 8.755 25.456 4.779 49.635 13.754 71.867 26.676 22.947 13.338 27.064 44.737 8.309 63.492l-39.972 39.971c.517-17.949-7.56-35.423-22.665-46.441 4.358-41.902-32.399-76.485-72.556-65.808-11.633 3.098-24.266 1.084-34.609-6.088-2.202-1.528-5.976-4.711-12.523-7.668 23.7-6.455 48.516-9.097 73.103-7.691 4.141.241 7.68-2.924 7.916-7.06s-2.924-7.68-7.06-7.916c-36.89-2.113-74.256 4.339-108.125 18.637-8.801 1.677-17.053 5.421-23.799 10.634-10.355 7.894-23.515 10.499-36.105 7.151-19.516-5.183-40.501.46-54.767 14.725-3.942 3.942-7.399 8.722-9.087 11.88-6.541 11.142-17.625 18.514-30.445 20.241-25.069 3.35-45.361 23.124-48.824 48.824-1.682 12.486-8.76 23.722-20.459 30.567-22.105 12.827-32.955 39.035-26.385 63.737 3.232 12.134.907 25.507-7.199 36.16-15.468 20.282-15.47 48.608-.026 68.859.022.03.045.06.067.089 7.898 10.344 10.506 23.498 7.156 36.092-5.183 19.516.459 40.501 14.725 54.767 12.395 12.397 33.286 21.063 55.384 17.187 20.214 25.135 58.535 28.081 82.239 4.378l324.621-324.62c25.729-25.726 20.086-68.78-11.375-87.068zm-323.85 401.082c-18.809 18.808-50.194 14.573-63.492-8.309-19.629-33.763-30.678-73.195-30.614-114.311.006-3.883-2.941-7.082-6.722-7.472-4.463-.461-8.278 3.049-8.278 7.449-.06 39.6 9.65 79.319 28.683 114.779-14.351.626-27.934-5.649-35.984-13.701-10.499-10.499-14.651-25.944-10.836-40.307 4.318-16.229 1.655-33.784-9.773-49.108-11.378-14.92-11.376-35.764.058-50.758 10.694-14.051 14.208-32.186 9.716-49.048-4.753-17.872 2.871-37.301 19.434-46.904 14.747-8.559 25.24-23.231 27.803-41.653 2.506-18.586 17.237-33.317 35.823-35.823 17.902-2.423 32.887-12.699 41.646-27.797 9.657-16.65 29.09-24.175 46.911-19.441 17.105 4.55 34.983 1.008 49.022-9.694 14.95-11.295 34.515-11.193 48.923-1.414 2.819 1.913 11.078 9.118 25.309 11.933 8.568 1.703 17.551 1.335 25.661-.825 25.01-6.651 48.811 10.466 53.316 36.548.522 3.007.658 6.011.669 6.146-150.247-78.339-332.869 19.617-354.375 186.299-.392 3.04 1.097 5.946 3.659 7.441 4.579 2.674 10.524-.147 11.219-5.521 20.392-158.041 198.179-253.28 341.735-169.862 23.846 14.916 26.587 45.253 8.334 63.507z"/></g></g></svg>